<?xml version="1.0" encoding="UTF-8"?>
<svg width="512" height="512" viewBox="0 0 512 512" xmlns="http://www.w3.org/2000/svg">
  <!-- 背景円（緑） -->
  <circle cx="256" cy="256" r="240" fill="#2e7d46"/>
  
  <!-- 野球ボール -->
  <g transform="translate(100, 100)">
    <!-- ボール本体（白） -->
    <circle cx="120" cy="120" r="110" fill="#ffffff"/>
    
    <!-- 縫い目（左側） -->
    <path d="M 40 80 Q 35 90, 40 100 Q 35 110, 40 120 Q 35 130, 40 140 Q 35 150, 40 160" 
          stroke="#ff4444" stroke-width="4" fill="none"/>
    <path d="M 30 85 L 50 85 M 30 95 L 50 95 M 30 105 L 50 105 M 30 115 L 50 115 M 30 125 L 50 125 M 30 135 L 50 135 M 30 145 L 50 145 M 30 155 L 50 155" 
          stroke="#ff4444" stroke-width="3"/>
    
    <!-- 縫い目（右側） -->
    <path d="M 200 80 Q 205 90, 200 100 Q 205 110, 200 120 Q 205 130, 200 140 Q 205 150, 200 160" 
          stroke="#ff4444" stroke-width="4" fill="none"/>
    <path d="M 190 85 L 210 85 M 190 95 L 210 95 M 190 105 L 210 105 M 190 115 L 210 115 M 190 125 L 210 125 M 190 135 L 210 135 M 190 145 L 210 145 M 190 155 L 210 155" 
          stroke="#ff4444" stroke-width="3"/>
  </g>
  
  <!-- 鉛筆 -->
  <g transform="translate(220, 150) rotate(45 50 50)">
    <!-- 鉛筆本体 -->
    <rect x="20" y="20" width="30" height="100" fill="#ffa500" rx="3"/>
    <rect x="20" y="20" width="30" height="20" fill="#ff8c00"/>
    
    <!-- 鉛筆の先 -->
    <polygon points="35,120 20,140 50,140" fill="#333333"/>
    <polygon points="35,130 28,140 42,140" fill="#666666"/>
    
    <!-- 消しゴム -->
    <rect x="20" y="10" width="30" height="15" fill="#ff6b6b" rx="2"/>
    <rect x="20" y="10" width="30" height="5" fill="#333333"/>
  </g>
  
  <!-- 脳アイコン -->
  <g transform="translate(340, 340)">
    <path d="M 40 50 Q 30 30, 50 25 Q 70 20, 80 35 Q 90 25, 105 30 Q 115 40, 110 55 Q 120 60, 115 75 Q 110 85, 95 85 Q 85 90, 70 85 Q 55 90, 45 85 Q 30 80, 35 65 Q 25 55, 40 50 Z" 
          fill="#ffffff" stroke="#2e7d46" stroke-width="3"/>
    <!-- 脳のしわ -->
    <path d="M 50 40 Q 60 45, 70 40 M 55 50 Q 65 55, 75 50 M 60 60 Q 70 65, 80 60 M 55 70 Q 65 75, 75 70" 
          stroke="#2e7d46" stroke-width="2" fill="none" opacity="0.5"/>
  </g>
</svg>