<svg viewBox="0 0 512 512" xmlns="http://www.w3.org/2000/svg">
  <!-- Green background circle -->
  <circle cx="256" cy="256" r="256" fill="#2e7d46"/>
  
  <!-- Baseball Bat -->
  <g transform="translate(256, 256) rotate(-45)">
    <!-- Bat grip (brown) -->
    <rect x="-140" y="-10" width="90" height="20" rx="5" fill="#8b4513" stroke="#5d2f0b" stroke-width="2"/>
    
    <!-- Grip tape (black) -->
    <rect x="-135" y="-8" width="35" height="16" fill="#2c2c2c"/>
    <rect x="-115" y="-8" width="6" height="16" fill="#4a4a4a"/>
    <rect x="-105" y="-8" width="6" height="16" fill="#4a4a4a"/>
    <rect x="-95" y="-8" width="6" height="16" fill="#4a4a4a"/>
    
    <!-- Bat middle section -->
    <rect x="-50" y="-12" width="70" height="24" rx="5" fill="#d4a373" stroke="#a67c52" stroke-width="2"/>
    
    <!-- Bat barrel (hitting area) -->
    <ellipse cx="100" cy="0" rx="120" ry="22" fill="#f5deb3" stroke="#d4a373" stroke-width="2"/>
    
    <!-- Wood grain lines -->
    <line x1="-50" y1="-6" x2="180" y2="-6" stroke="#c9a66b" stroke-width="1.5" opacity="0.4"/>
    <line x1="-50" y1="0" x2="180" y2="0" stroke="#c9a66b" stroke-width="1.5" opacity="0.4"/>
    <line x1="-50" y1="6" x2="180" y2="6" stroke="#c9a66b" stroke-width="1.5" opacity="0.4"/>
    
    <!-- Brand mark area -->
    <rect x="70" y="-8" width="50" height="16" fill="#8b6914" opacity="0.3" rx="3"/>
    
    <!-- Shine effect on barrel -->
    <ellipse cx="100" cy="-5" rx="80" ry="8" fill="white" opacity="0.2"/>
  </g>
  
  <!-- BL text (BaseLog) -->
  <g transform="translate(256, 380)">
    <text x="0" y="0" font-family="Arial Black, sans-serif" font-size="80" font-weight="900" 
          fill="white" text-anchor="middle" dominant-baseline="middle" style="letter-spacing: -3px;">BL</text>
  </g>
</svg>