<svg viewBox="0 0 512 512" xmlns="http://www.w3.org/2000/svg">
  <!-- Green background circle -->
  <circle cx="256" cy="256" r="256" fill="#2e7d46"/>
  
  <!-- Baseball -->
  <g transform="translate(200, 256)">
    <!-- Baseball white circle -->
    <circle cx="0" cy="0" r="90" fill="white" stroke="black" stroke-width="6"/>
    
    <!-- Baseball stitches (left side) -->
    <path d="M -30 -75 Q -20 -65, -20 -50 Q -20 -35, -30 -25 Q -20 -15, -20 0 Q -20 15, -30 25 Q -20 35, -20 50 Q -20 65, -30 75" 
          fill="none" stroke="#ff4444" stroke-width="5" stroke-linecap="round"/>
    
    <!-- Baseball stitches (right side) -->
    <path d="M 30 -75 Q 20 -65, 20 -50 Q 20 -35, 30 -25 Q 20 -15, 20 0 Q 20 15, 30 25 Q 20 35, 20 50 Q 20 65, 30 75" 
          fill="none" stroke="#ff4444" stroke-width="5" stroke-linecap="round"/>
    
    <!-- Stitch cross marks -->
    <g stroke="#ff4444" stroke-width="3" stroke-linecap="round">
      <!-- Left side crosses -->
      <path d="M -25 -60 L -15 -55 M -25 -55 L -15 -60"/>
      <path d="M -25 -40 L -15 -35 M -25 -35 L -15 -40"/>
      <path d="M -25 -20 L -15 -15 M -25 -15 L -15 -20"/>
      <path d="M -25 0 L -15 5 M -25 5 L -15 0"/>
      <path d="M -25 20 L -15 25 M -25 25 L -15 20"/>
      <path d="M -25 40 L -15 45 M -25 45 L -15 40"/>
      <path d="M -25 60 L -15 65 M -25 65 L -15 60"/>
      
      <!-- Right side crosses -->
      <path d="M 15 -60 L 25 -55 M 15 -55 L 25 -60"/>
      <path d="M 15 -40 L 25 -35 M 15 -35 L 25 -40"/>
      <path d="M 15 -20 L 25 -15 M 15 -15 L 25 -20"/>
      <path d="M 15 0 L 25 5 M 15 5 L 25 0"/>
      <path d="M 15 20 L 25 25 M 15 25 L 25 20"/>
      <path d="M 15 40 L 25 45 M 15 45 L 25 40"/>
      <path d="M 15 60 L 25 65 M 15 65 L 25 60"/>
    </g>
  </g>
  
  <!-- Pencil -->
  <g transform="translate(280, 190) rotate(45)">
    <!-- Pencil body (orange gradient) -->
    <defs>
      <linearGradient id="pencilGradient" x1="0%" y1="0%" x2="0%" y2="100%">
        <stop offset="0%" style="stop-color:#ff9944;stop-opacity:1" />
        <stop offset="50%" style="stop-color:#ffaa44;stop-opacity:1" />
        <stop offset="100%" style="stop-color:#ff8833;stop-opacity:1" />
      </linearGradient>
    </defs>
    <rect x="-20" y="0" width="40" height="120" fill="url(#pencilGradient)" stroke="black" stroke-width="4" rx="2"/>
    
    <!-- Orange eraser top -->
    <rect x="-20" y="-25" width="40" height="25" rx="8" fill="#ff6633" stroke="black" stroke-width="4"/>
    
    <!-- Pencil wood -->
    <path d="M -20 120 L -20 140 L 0 150 L 20 140 L 20 120 Z" fill="#f4d1a6" stroke="black" stroke-width="4"/>
    
    <!-- Pencil lead -->
    <path d="M -8 140 L 0 150 L 8 140 Z" fill="#2c3e50" stroke="black" stroke-width="4"/>
    
    <!-- Metal band -->
    <rect x="-20" y="110" width="40" height="10" fill="#c0c0c0" stroke="black" stroke-width="3"/>
  </g>
  
  <!-- BB text -->
  <g transform="translate(350, 380)">
    <text x="0" y="0" font-family="Arial Black, sans-serif" font-size="90" font-weight="900" 
          fill="white" text-anchor="middle" dominant-baseline="middle" style="letter-spacing: -5px;">BB</text>
  </g>
</svg>